<?xml version="1.0" encoding="UTF-8" standalone="no"?>
<!-- Created with Inkscape (http://www.inkscape.org/) -->

<svg
   xmlns:osb="http://www.openswatchbook.org/uri/2009/osb"
   xmlns:dc="http://purl.org/dc/elements/1.1/"
   xmlns:cc="http://creativecommons.org/ns#"
   xmlns:rdf="http://www.w3.org/1999/02/22-rdf-syntax-ns#"
   xmlns:svg="http://www.w3.org/2000/svg"
   xmlns="http://www.w3.org/2000/svg"
   xmlns:xlink="http://www.w3.org/1999/xlink"
   xmlns:sodipodi="http://sodipodi.sourceforge.net/DTD/sodipodi-0.dtd"
   xmlns:inkscape="http://www.inkscape.org/namespaces/inkscape"
   width="423.93109mm"
   height="63.787971mm"
   viewBox="0 0 1502.118 226.02038"
   id="svg5807"
   version="1.1"
   inkscape:version="0.91 r13725"
   sodipodi:docname="logoColorFull.svg">
  <defs
     id="defs5809">
    <linearGradient
       id="linearGradient4570"
       osb:paint="solid">
      <stop
         style="stop-color:#0000ac;stop-opacity:1;"
         offset="0"
         id="stop4572" />
    </linearGradient>
    <linearGradient
       id="linearGradient4564"
       osb:paint="solid">
      <stop
         style="stop-color:#003399;stop-opacity:1;"
         offset="0"
         id="stop4566" />
    </linearGradient>
    <linearGradient
       id="linearGradient4558"
       osb:paint="solid">
      <stop
         style="stop-color:#000000;stop-opacity:1;"
         offset="0"
         id="stop4560" />
    </linearGradient>
    <linearGradient
       id="linearGradient4552"
       osb:paint="solid">
      <stop
         style="stop-color:#000000;stop-opacity:1;"
         offset="0"
         id="stop4554" />
    </linearGradient>
    <linearGradient
       id="linearGradient4531"
       osb:paint="solid">
      <stop
         style="stop-color:#6699ff;stop-opacity:1;"
         offset="0"
         id="stop4533" />
    </linearGradient>
    <linearGradient
       id="linearGradient4274"
       osb:paint="solid">
      <stop
         style="stop-color:#2793f4;stop-opacity:1;"
         offset="0"
         id="stop4276" />
    </linearGradient>
    <linearGradient
       id="linearGradient4264"
       osb:paint="solid">
      <stop
         style="stop-color:#000000;stop-opacity:1;"
         offset="0"
         id="stop4266" />
    </linearGradient>
    <linearGradient
       id="linearGradient6450"
       osb:paint="solid">
      <stop
         style="stop-color:#000000;stop-opacity:1;"
         offset="0"
         id="stop6452" />
    </linearGradient>
    <linearGradient
       id="linearGradient6444"
       osb:paint="solid">
      <stop
         style="stop-color:#fda715;stop-opacity:1;"
         offset="0"
         id="stop6446" />
    </linearGradient>
    <linearGradient
       id="linearGradient6438"
       osb:paint="solid">
      <stop
         style="stop-color:#000000;stop-opacity:1;"
         offset="0"
         id="stop6440" />
    </linearGradient>
    <linearGradient
       id="linearGradient6432"
       osb:paint="solid">
      <stop
         style="stop-color:#000000;stop-opacity:1;"
         offset="0"
         id="stop6434" />
    </linearGradient>
    <linearGradient
       id="linearGradient6412"
       osb:paint="solid">
      <stop
         style="stop-color:#000000;stop-opacity:1;"
         offset="0"
         id="stop6414" />
    </linearGradient>
    <linearGradient
       id="linearGradient6406"
       osb:paint="solid">
      <stop
         style="stop-color:#000000;stop-opacity:1;"
         offset="0"
         id="stop6408" />
    </linearGradient>
    <linearGradient
       id="linearGradient6398"
       osb:paint="gradient">
      <stop
         style="stop-color:#99cc33;stop-opacity:1;"
         offset="0"
         id="stop6400" />
      <stop
         style="stop-color:#99cc33;stop-opacity:0;"
         offset="1"
         id="stop6402" />
    </linearGradient>
    <linearGradient
       id="linearGradient6392"
       osb:paint="solid">
      <stop
         style="stop-color:#2793f4;stop-opacity:1;"
         offset="0"
         id="stop6394" />
    </linearGradient>
    <linearGradient
       inkscape:collect="always"
       xlink:href="#linearGradient6444"
       id="linearGradient6416"
       x1="113.4797"
       y1="676.65509"
       x2="342.43909"
       y2="676.65509"
       gradientUnits="userSpaceOnUse"
       gradientTransform="translate(32.651912,-5.9926407)" />
    <linearGradient
       inkscape:collect="always"
       xlink:href="#linearGradient6392"
       id="linearGradient6436"
       x1="36.810131"
       y1="574.01581"
       x2="419.10864"
       y2="574.01581"
       gradientUnits="userSpaceOnUse"
       gradientTransform="translate(32.526912,-4.2426407)" />
    <linearGradient
       inkscape:collect="always"
       xlink:href="#linearGradient6444"
       id="linearGradient6454"
       x1="181.14185"
       y1="557.18457"
       x2="346.98291"
       y2="557.18457"
       gradientUnits="userSpaceOnUse"
       gradientTransform="translate(27.651912,-6.4926407)" />
  </defs>
  <sodipodi:namedview
     id="base"
     pagecolor="#ffffff"
     bordercolor="#666666"
     borderopacity="1.0"
     inkscape:pageopacity="0.0"
     inkscape:pageshadow="2"
     inkscape:zoom="0.60543105"
     inkscape:cx="968.64781"
     inkscape:cy="157.44414"
     inkscape:document-units="px"
     inkscape:current-layer="layer1"
     showgrid="true"
     units="mm"
     inkscape:snap-global="true"
     inkscape:window-width="1440"
     inkscape:window-height="852"
     inkscape:window-x="0"
     inkscape:window-y="0"
     inkscape:window-maximized="1"
     inkscape:snap-bbox="true"
     inkscape:bbox-paths="true"
     inkscape:bbox-nodes="true"
     inkscape:snap-bbox-edge-midpoints="true"
     inkscape:snap-bbox-midpoints="true"
     inkscape:snap-intersection-paths="true"
     inkscape:object-paths="true"
     inkscape:object-nodes="true"
     inkscape:snap-smooth-nodes="true"
     inkscape:snap-midpoints="true"
     inkscape:snap-object-midpoints="true"
     inkscape:snap-center="true"
     showguides="true"
     inkscape:snap-others="true"
     inkscape:snap-nodes="true"
     inkscape:guide-bbox="true"
     inkscape:snap-text-baseline="true"
     inkscape:snap-grids="false"
     inkscape:snap-to-guides="false"
     fit-margin-top="0"
     fit-margin-left="0"
     fit-margin-right="0"
     fit-margin-bottom="0">
    <inkscape:grid
       type="axonomgrid"
       id="grid5817"
       units="mm"
       empspacing="20"
       gridanglex="25"
       gridanglez="25"
       spacingy="1.7716535"
       enabled="true"
       originx="-90.032656"
       originy="-339.2815" />
    <sodipodi:guide
       position="482.72382,538.41482"
       orientation="0,1"
       id="guide4612" />
    <sodipodi:guide
       position="484.49159,515.43385"
       orientation="1,0"
       id="guide4614" />
  </sodipodi:namedview>
  <metadata
     id="metadata5812">
    <rdf:RDF>
      <cc:Work
         rdf:about="">
        <dc:format>image/svg+xml</dc:format>
        <dc:type
           rdf:resource="http://purl.org/dc/dcmitype/StillImage" />
        <dc:title></dc:title>
      </cc:Work>
    </rdf:RDF>
  </metadata>
  <g
     inkscape:label="Layer 1"
     inkscape:groupmode="layer"
     id="layer1"
     transform="translate(-90.032658,-487.06045)">
    <path
       style="fill:#000080;fill-opacity:1;fill-rule:evenodd;stroke:url(#linearGradient6436);stroke-width:0;stroke-linecap:butt;stroke-linejoin:miter;stroke-miterlimit:4;stroke-dasharray:none;stroke-opacity:1"
       d="m 235.82119,646.74713 c 17.05761,8.14694 32.21691,8.13018 49.36947,0.1071 l 138.67253,-64.60835 c 9.40282,-4.70084 9.63283,-20.28109 0.0337,-24.77799 l -20.93587,-9.84044 -142.47462,66.437 -100.69539,-47.1033 142.65568,-66.28129 c -6.02369,-2.72949 -8.17343,-3.6351 -17.17121,-7.8583 -17.28148,-7.80078 -32.36909,-7.65948 -49.23447,0.30121 L 97.13533,557.75675 c -9.534506,4.47658 -9.411439,20.12009 0.01724,24.41874 31.32104,16.03077 119.42461,56.2628 138.66862,64.57164 z"
       id="path5823"
       inkscape:connector-curvature="0"
       sodipodi:nodetypes="ccccccccccccc" />
    <path
       style="opacity:0.8;fill:#2640d0;fill-opacity:1;fill-rule:evenodd;stroke:url(#linearGradient6454);stroke-width:0;stroke-linecap:butt;stroke-linejoin:miter;stroke-miterlimit:4;stroke-dasharray:none;stroke-opacity:1"
       d="m 210.01942,567.52314 45.59188,21.25985 c 44.46744,-21.20071 75.43761,-35.28014 117.77902,-54.92126 l -45.59188,-21.25984 c -39.6028,18.67551 -81.16368,38.48705 -117.77902,54.92125 z"
       id="path5827"
       inkscape:connector-curvature="0"
       sodipodi:nodetypes="ccccc" />
    <path
       style="opacity:0.8;fill:#2640d0;fill-opacity:1;fill-rule:evenodd;stroke:url(#linearGradient6416);stroke-width:0;stroke-linecap:butt;stroke-linejoin:miter;stroke-miterlimit:4;stroke-dasharray:none;stroke-opacity:1"
       d="m 146.63161,626.48772 0.0497,24.87605 c -0.0234,8.60425 1.66304,11.48224 11.44835,15.92335 l 91.09219,42.47282 c 9.53738,4.44268 13.32036,4.42132 22.8317,-0.0252 l 91.18796,-42.52163 c 9.4709,-4.40638 11.34945,-7.15037 11.34945,-16.0483 l 0,-24.67712 -113.9797,53.14961 z"
       id="path5829"
       inkscape:connector-curvature="0"
       sodipodi:nodetypes="cccccccccc" />
    <text
       xml:space="preserve"
       style="font-style:normal;font-weight:normal;font-size:70px;line-height:125%;font-family:sans-serif;letter-spacing:0px;word-spacing:0px;fill:#000000;fill-opacity:1;stroke:none;stroke-width:1px;stroke-linecap:butt;stroke-linejoin:miter;stroke-opacity:1"
       x="873.84436"
       y="609.44897"
       id="text4164"
       sodipodi:linespacing="125%"><tspan
         sodipodi:role="line"
         id="tspan4166"
         x="873.84436"
         y="609.44897" /></text>
    <flowRoot
       xml:space="preserve"
       id="flowRoot4207"
       style="font-style:normal;font-weight:normal;font-size:70px;line-height:125%;font-family:sans-serif;letter-spacing:0px;word-spacing:0px;fill:#000000;fill-opacity:1;stroke:none;stroke-width:1px;stroke-linecap:butt;stroke-linejoin:miter;stroke-opacity:1"><flowRegion
         id="flowRegion4209"><rect
           id="rect4211"
           width="265.95264"
           height="194.88188"
           x="987.82404"
           y="832.67719" /></flowRegion><flowPara
         id="flowPara4213" /></flowRoot>    <text
       xml:space="preserve"
       style="font-style:normal;font-weight:normal;font-size:70px;line-height:125%;font-family:sans-serif;letter-spacing:0px;word-spacing:0px;fill:#000000;fill-opacity:1;stroke:none;stroke-width:1px;stroke-linecap:butt;stroke-linejoin:miter;stroke-opacity:1"
       x="1139.797"
       y="520.86627"
       id="text4215"
       sodipodi:linespacing="125%"><tspan
         sodipodi:role="line"
         id="tspan4217"
         x="1139.797"
         y="520.86627" /></text>
    <g
       id="g4714"
       style="font-style:normal;font-variant:normal;font-weight:normal;font-stretch:normal;font-size:262.5px;line-height:125%;font-family:'PT Sans';-inkscape-font-specification:'PT Sans';letter-spacing:0px;word-spacing:0px;fill:#2793f4;fill-opacity:1;stroke:none;stroke-width:1px;stroke-linecap:butt;stroke-linejoin:miter;stroke-opacity:1"
       transform="translate(38.183766,-4.242639)">
      <path
         id="path4716"
         style="fill:#000080;fill-opacity:1"
         d="m 535.25082,683.31789 c -5.87554,-0.0985 -10.02774,0.01 -15.04131,-0.0357 -7.35895,-0.0671 -14.7516,0.37556 -22.075,-0.35 -8.67597,-0.85956 -18.725,-1.575 -25.725,-4.725 -7,-3.325 -12.775,-7.9625 -17.325,-13.9125 -4.375,-6.125 -7.6125,-13.3875 -9.7125,-21.7875 -1.925,-8.575 -2.8875,-18.025 -2.8875,-28.35 0,-22.225 4.9,-39.2 14.7,-50.925 9.8,-11.9 23.8875,-17.85 42.2625,-17.85 8.4,0 14.23615,-0.28239 21.35517,-0.35021 4.68141,-0.0446 8.05943,-0.53184 14.04483,-0.0373 l 0.0875,18.4875 c -4.15377,-0.20785 -11.0917,-0.17037 -16.6375,-0.125 -5.58474,0.0457 -11.15,0.4 -16.75,0.4 -24.85,0 -37.275,16.8 -37.275,50.4 0,6.65 0.6125,13.0375 1.8375,19.1625 1.4,5.95 3.5875,11.2875 6.5625,16.0125 3.15,4.55 7.175,8.225 12.075,11.025 5.075,2.8 12.31814,3.41207 18.6375,4.2 5.84844,0.72922 11.78158,0.52743 17.675,0.46746 4.69307,-0.0477 8.33922,-0.3201 14.06453,-0.65856 z"
         inkscape:connector-curvature="0"
         sodipodi:nodetypes="caacccscsaccasscccaacc" />
      <path
         id="path4718"
         style="fill:#000080;fill-opacity:1"
         d="m 591.62963,647.49467 c 0,6.125 1.05,10.5 3.15,13.125 2.1,2.625 6.05251,3.35255 9.36298,4.22948 2.48319,0.65779 5.1078,0.57948 7.67277,0.72037 3.42381,0.18807 6.52189,0.1424 10.28557,0.16601 l -0.25836,17.6518 c -3.52439,0.17231 -7.45197,0.13321 -11.31296,1.1e-4 -4.26705,-0.1471 -8.64208,0.31529 -12.8625,-0.45527 -6.72339,-1.22755 -14.35,-2.1875 -19.425,-6.5625 -5.075,-4.55 -7.6125,-12.1625 -7.6125,-22.8375 l 0,-157.5 21,0 z"
         inkscape:connector-curvature="0"
         sodipodi:nodetypes="ssaaccsacsccs" />
      <path
         id="path4720"
         style="fill:#000080;fill-opacity:1"
         d="m 737.10892,683.53217 c -7.64393,-0.29304 -11.04985,-0.19282 -16.575,-0.275 -8.23314,-0.12246 -16.50427,0.4684 -24.7,-0.325 -8.76355,-0.84836 -18.6375,-1.575 -25.9875,-4.725 -7.35,-3.325 -13.3875,-7.9625 -18.1125,-13.9125 -4.725,-6.125 -8.225,-13.3875 -10.5,-21.7875 -2.275,-8.4 -3.4125,-17.85 -3.4125,-28.35 0,-22.4 4.9875,-39.4625 14.9625,-51.1875 9.975,-11.725 24.2375,-17.5875 42.7875,-17.5875 5.95,0 11.9,0.7 17.85,2.1 5.95,1.225 11.2875,3.675 16.0125,7.35 4.725,3.675 8.575,8.925 11.55,15.75 2.975,6.65 4.4625,15.4875 4.4625,26.5125 0,5.775 -0.525,12.1625 -1.575,19.1625 l -84.2625,0 c 0,7.7 0.7875,14.525 2.3625,20.475 1.575,5.95 4.025,11.025 7.35,15.225 3.325,4.025 7.6125,7.175 12.8625,9.45 5.425,2.1 13.06795,2.55797 19.6875,3.15 5.88599,0.52642 11.81606,0.26985 17.725,0.35 5.82313,0.079 13.61849,0.0614 17.47052,0.12901 z m -41.275,-119.775 c -10.325,0 -18.6375,2.7125 -24.9375,8.1375 -6.125,5.425 -9.8,14.7 -11.025,27.825 l 65.1,0 c 0,-13.3 -2.5375,-22.575 -7.6125,-27.825 -5.075,-5.425 -12.25,-8.1375 -21.525,-8.1375 z"
         inkscape:connector-curvature="0"
         sodipodi:nodetypes="caaccsssscscsccsccaaccsccccs" />
      <path
         id="path4722"
         style="fill:#000080;fill-opacity:1"
         d="m 783.9736,545.57741 c 6.84572,-0.43317 11.98285,-0.24065 17.97347,-0.14683 8.4556,0.13243 16.93857,0.12961 25.35013,1.00159 7.32583,0.75943 16.3625,1.225 21.7875,3.675 5.6,2.45 9.8,5.6875 12.6,9.7125 2.975,3.85 4.9,8.1375 5.775,12.8625 1.05,4.725 1.575,9.45 1.575,14.175 0,10.5 -0.2625,20.7375 -0.7875,30.7125 -0.525,9.975 -0.7875,19.425 -0.7875,28.35 0,6.475 0.2625,12.6 0.7875,18.375 0.525,5.775 1.4875,11.1125 2.8875,16.0125 l -15.4875,0 -5.5125,-18.375 -1.3125,0 c -1.575,2.45 -3.5875,4.9 -6.0375,7.35 -2.275,2.275 -5.075,4.375 -8.4,6.3 -3.325,1.75 -7.175,3.2375 -11.55,4.4625 -4.375,1.225 -9.3625,1.8375 -14.9625,1.8375 -5.6,0 -10.85,-0.875 -15.75,-2.625 -4.725,-1.75 -8.8375,-4.2 -12.3375,-7.35 -3.5,-3.325 -6.3,-7.2625 -8.4,-11.8125 -1.925,-4.55 -2.8875,-9.7125 -2.8875,-15.4875 0,-7.7 1.575,-14.0875 4.725,-19.1625 3.15,-5.25 7.525,-9.3625 13.125,-12.3375 5.775,-3.15 12.6,-5.3375 20.475,-6.5625 8.05,-1.4 16.8875,-2.1 26.5125,-2.1 l 7.0875,0 c 2.45,0 4.9,0.175 7.35,0.525 0.525,-5.25 0.7875,-9.975 0.7875,-14.175 0,-9.625 -1.925,-16.3625 -5.775,-20.2125 -3.85,-3.85 -13.80984,-4.77137 -21,-5.775 -3.20654,-0.44758 -6.47487,-0.0876 -9.7125,-0.0875 -3.20847,1.3e-4 -6.41679,0.047 -9.625,0.0875 -3.47168,0.0439 -6.91403,-0.0588 -10.4145,0.16851 -2.64112,0.17152 -4.46821,0.10105 -8.00701,0.11316 z m 29.6736,117.92976 c 4.9,0 9.275,-0.6125 13.125,-1.8375 3.85,-1.4 7.175,-3.0625 9.975,-4.9875 2.8,-2.1 5.075,-4.375 6.825,-6.825 1.925,-2.45 3.325,-4.8125 4.2,-7.0875 l 0,-21.7875 c -2.45,-0.175 -4.9875,-0.2625 -7.6125,-0.2625 -2.45,-0.175 -4.9,-0.2625 -7.35,-0.2625 -5.425,0 -10.7625,0.35 -16.0125,1.05 -5.075,0.525 -9.625,1.6625 -13.65,3.4125 -3.85,1.575 -7,3.85 -9.45,6.825 -2.275,2.8 -3.4125,6.3875 -3.4125,10.7625 0,6.125 2.1875,11.2 6.5625,15.225 4.375,3.85 9.975,5.775 16.8,5.775 z"
         inkscape:connector-curvature="0"
         sodipodi:nodetypes="caacccssssccccscsscccscccsscssaaasccsccccccscccscs" />
      <path
         id="path4724"
         style="fill:#000080;fill-opacity:1"
         d="m 974.39681,564.99467 c -5.72369,0.13541 -11.4875,-0.625 -16.2125,-0.625 -7.525,0 -15.975,3.85 -20.35,8.05 -4.375,4.025 -7.0875,9.1875 -8.1375,15.4875 l 0,91.875 -21,0 0,-131.25 14.7,0 3.9375,16.0125 1.05,0 c 3.325,-5.95 7.2625,-10.5 11.8125,-13.65 4.725,-3.325 10.675,-4.9875 17.85,-4.9875 5.075,0 9.76558,0.0856 16.0625,0.125 z"
         inkscape:connector-curvature="0"
         sodipodi:nodetypes="cscccccccccscc" />
      <path
         id="path4726"
         style="fill:#2640d0;fill-opacity:1"
         d="m 1074.8183,679.78217 0,-74.2875 q 0,-10.5 -1.05,-18.1125 -0.7875,-7.875 -3.4125,-13.125 -2.625,-5.25 -7.6125,-7.875 -4.725,-2.625 -12.6,-2.625 -12.075,0 -20.2125,7.35 -7.875,7.35 -11.025,18.375 l 0,90.3 -21,0 0,-131.25 14.7,0 3.9375,16.0125 1.05,0 q 7.0875,-8.4 16.275,-13.65 9.45,-5.5125 24.4125,-5.5125 12.6,0 20.475,4.9875 8.1375,4.725 12.6,16.8 6.0375,-10.2375 16.5375,-16.0125 10.7625,-5.775 24.15,-5.775 11.025,0 18.6375,2.625 7.6125,2.3625 12.6,8.6625 4.9875,6.3 7.0875,17.0625 2.3625,10.7625 2.3625,27.3 l 0,78.75 -21,0 0,-79.0125 q 0,-9.45 -1.05,-16.275 -0.7875,-7.0875 -3.675,-11.55 -2.625,-4.725 -7.6125,-6.825 -4.725,-2.3625 -12.6,-2.3625 -13.125,0 -20.475,7.35 -7.35,7.35 -10.5,21 l 0,87.675 -21,0 z"
         inkscape:connector-curvature="0" />
      <path
         id="path4728"
         style="fill:#2640d0;fill-opacity:1"
         d="m 1220.3348,545.21598 c 0,0 8.0608,-0.0753 12.0896,0.0166 9.0315,0.20619 18.0916,0.24657 27.075,1.19957 7.324,0.77696 16.3625,1.225 21.7875,3.675 5.6,2.45 9.8,5.6875 12.6,9.7125 2.975,3.85 4.9,8.1375 5.775,12.8625 1.05,4.725 1.575,9.45 1.575,14.175 0,10.5 -0.2625,20.7375 -0.7875,30.7125 -0.525,9.975 -0.7875,19.425 -0.7875,28.35 0,6.475 0.2625,12.6 0.7875,18.375 0.525,5.775 1.4875,11.1125 2.8875,16.0125 l -15.4875,0 -5.5125,-18.375 -1.3125,0 c -1.575,2.45 -3.5875,4.9 -6.0375,7.35 -2.275,2.275 -5.075,4.375 -8.4,6.3 -3.325,1.75 -7.175,3.2375 -11.55,4.4625 -4.375,1.225 -9.3625,1.8375 -14.9625,1.8375 -5.6,0 -10.85,-0.875 -15.75,-2.625 -4.725,-1.75 -8.8375,-4.2 -12.3375,-7.35 -3.5,-3.325 -6.3,-7.2625 -8.4,-11.8125 -1.925,-4.55 -2.8875,-9.7125 -2.8875,-15.4875 0,-7.7 1.575,-14.0875 4.725,-19.1625 3.15,-5.25 7.525,-9.3625 13.125,-12.3375 5.775,-3.15 12.6,-5.3375 20.475,-6.5625 8.05,-1.4 16.8875,-2.1 26.5125,-2.1 l 7.0875,0 c 2.45,0 4.9,0.175 7.35,0.525 0.525,-5.25 0.7875,-9.975 0.7875,-14.175 0,-9.625 -1.925,-16.3625 -5.775,-20.2125 -3.85,-3.85 -13.6387,-4.82816 -20.7348,-6.04017 -3.2252,-0.55085 -6.5315,-0.41151 -9.8009,-0.53832 -3.1651,-0.12276 -6.3333,-0.14692 -9.5,-0.21535 -3.0547,-0.066 -6.1092,-0.14133 -9.1643,-0.18833 -3.5964,-0.0553 -0.8858,-0.25816 -10.7899,-0.11023 0.1369,-5.57419 0.073,-17.75797 0.073,-17.75797 z m 25.5146,118.29119 c 4.9,0 9.275,-0.6125 13.125,-1.8375 3.85,-1.4 7.175,-3.0625 9.975,-4.9875 2.8,-2.1 5.075,-4.375 6.825,-6.825 1.925,-2.45 3.325,-4.8125 4.2,-7.0875 l 0,-21.7875 c -2.45,-0.175 -4.9875,-0.2625 -7.6125,-0.2625 -2.45,-0.175 -4.9,-0.2625 -7.35,-0.2625 -5.425,0 -10.7625,0.35 -16.0125,1.05 -5.075,0.525 -9.625,1.6625 -13.65,3.4125 -3.85,1.575 -7,3.85 -9.45,6.825 -2.275,2.8 -3.4125,6.3875 -3.4125,10.7625 0,6.125 2.1875,11.2 6.5625,15.225 4.375,3.85 9.975,5.775 16.8,5.775 z"
         inkscape:connector-curvature="0"
         sodipodi:nodetypes="saacccssssccccscsscccscccsscssaaaaccsscccccscccscss" />
      <path
         id="path4730"
         style="fill:#2640d0;fill-opacity:1"
         d="m 1331.7115,661.40717 60.6375,-83.475 11.025,-11.025 -71.6625,0 0,-18.375 93.45,0 0,18.375 -61.1625,84.2625 -10.7625,10.2375 71.925,0 0,18.375 -93.45,0 0,-18.375 z"
         inkscape:connector-curvature="0" />
      <path
         id="path4732"
         style="fill:#2640d0;fill-opacity:1"
         d="m 1544.8794,682.53217 c -6.6166,-0.0678 -7.6264,0.26788 -15.575,0.35 -7.9486,0.0821 -15.5,0.05 -24.95,0.05 -9.45,0 -18.6375,-1.575 -25.9875,-4.725 -7.35,-3.325 -13.3875,-7.9625 -18.1125,-13.9125 -4.725,-6.125 -8.225,-13.3875 -10.5,-21.7875 -2.275,-8.4 -3.4125,-17.85 -3.4125,-28.35 0,-22.4 4.9875,-39.4625 14.9625,-51.1875 9.975,-11.725 24.2375,-17.5875 42.7875,-17.5875 5.95,0 11.9,0.7 17.85,2.1 5.95,1.225 11.2875,3.675 16.0125,7.35 4.725,3.675 8.575,8.925 11.55,15.75 2.975,6.65 4.4625,15.4875 4.4625,26.5125 0,5.775 -0.525,12.1625 -1.575,19.1625 l -84.2625,0 c 0,7.7 0.7875,14.525 2.3625,20.475 1.575,5.95 4.025,11.025 7.35,15.225 3.325,4.025 7.524,7.26207 12.8625,9.45 5.3385,2.18793 12.8625,3.15 19.6875,3.15 6.825,0 11.0351,-0.0587 17.475,-0.15 6.4399,-0.0913 11.6843,0.0177 16.8875,-0.475 z m -40.525,-118.775 c -10.325,0 -18.6375,2.7125 -24.9375,8.1375 -6.125,5.425 -9.8,14.7 -11.025,27.825 l 65.1,0 c 0,-13.3 -2.5375,-22.575 -7.6125,-27.825 -5.075,-5.425 -12.25,-8.1375 -21.525,-8.1375 z"
         inkscape:connector-curvature="0"
         sodipodi:nodetypes="czzccsssscscsccsczzzccsccccs" />
    </g>
  </g>
</svg>
